<?xml version="1.0" encoding="UTF-8"?> <svg xmlns="http://www.w3.org/2000/svg" id="Layer_1" data-name="Layer 1" viewBox="0 0 484.47 288"><defs><style> .cls-1 { fill: #231f20; } .cls-2 { fill: #d68a49; } .cls-3 { fill: #0ca5c1; } </style></defs><polygon class="cls-3" points="445.67 226.32 440.6 226.32 440.6 138.02 77.4 138.02 77.4 50.96 82.48 50.96 82.48 133.16 445.67 133.16 445.67 226.32"></polygon><g><g><path class="cls-1" d="M147.24,118.55h-32.29V46.56h33.73c18.41,0,39.19,12.14,39.19,36.1s-21.8,35.89-40.63,35.89ZM146.83,54.07h-22.22v56.88h22.01c14.4,0,31.88-9.36,31.88-28.18s-15.74-28.7-31.68-28.7Z"></path><path class="cls-1" d="M248.95,101.38h-40.32l-8.02,17.18h-9.98l34.56-72.3h7.92l33.94,72.3h-10.18l-7.92-17.18ZM228.79,58.39l-16.56,35.38h33.12l-16.46-35.48-.1.1Z"></path><path class="cls-1" d="M305.62,118.55h-9.98V54.17h-32.81l-.1-7.71h75.39v7.71h-32.5v64.38Z"></path><path class="cls-1" d="M389.74,101.38h-40.32l-8.02,17.18h-9.98l34.56-72.3h7.92l33.94,72.3h-10.18l-7.92-17.18ZM369.59,58.39l-16.56,35.38h33.12l-16.46-35.48-.1.1Z"></path></g><g><path class="cls-1" d="M114.42,239.12v-85.89h11.44v75.02h13.68v10.88h-25.12Z"></path><path class="cls-1" d="M169.25,239.12l-2.24-19.06h-12.67l-2.24,19.06h-11.44l11.55-85.89h16.82l11.66,85.89h-11.44ZM160.61,166.35l-5.05,42.83h10.09l-5.05-42.83Z"></path><path class="cls-1" d="M237.76,239.12h-16.26l-7.62-69.3-7.51,69.3h-16.26l-9.42-85.89h11.44l6.39,66.38,7.4-66.38h16.04l7.4,66.38,6.39-66.38h11.44l-9.42,85.89Z"></path><path class="cls-1" d="M262.42,239.12v-29.83l-14.24-56.07h11.55l8.41,38.91,8.63-38.91h11.55l-14.46,55.95v29.94h-11.44Z"></path><path class="cls-1" d="M292.7,239.12v-85.89h30.72v10.88h-19.29v26.24h18.5v10.88h-18.5v27.02h19.29v10.88h-30.72Z"></path><path class="cls-1" d="M356.61,239.12l-9.87-35.32h-4.37v35.32h-11.44v-85.89h19.06c8.63,0,15.81,5.04,15.81,17.94v13.79c0,8.63-2.02,13.68-8.3,16.37l10.54,37.79h-11.44ZM354.37,172.63c0-6.28-2.02-8.52-6.28-8.52h-5.72v28.82h5.72c4.26,0,6.28-2.24,6.28-8.52v-11.77Z"></path><path class="cls-1" d="M407.06,222.64c0,12.45-7.29,17.94-17.72,17.94s-17.72-5.72-17.72-17.94v-12.22h11.44v10.76c0,6.28,3.14,8.52,6.28,8.52s6.28-2.24,6.28-8.52v-7.06c0-9.53-24-17.38-24-33.64v-10.76c0-12.67,8.19-17.94,17.72-17.94,10.99,0,17.72,5.05,17.72,17.94v13.46h-11.44v-12c0-6.28-3.14-8.52-6.28-8.52s-6.28,2.24-6.28,8.52v7.18c0,13.01,24,17.38,24,33.42v10.88Z"></path></g><g><path class="cls-1" d="M25.82,211.21v-57.88h20.7v7.33h-13v17.68h12.47v7.33h-12.47v25.54h-7.71Z"></path><path class="cls-1" d="M50.83,164.43c0-8.54,5.29-12.09,12.39-12.09s11.49,3.63,11.49,12.09v35.67c0,8.69-5.52,12.09-11.86,12.09s-12.01-3.55-12.01-12.09v-35.67ZM67,165.42c0-4.23-2.12-5.74-4.23-5.74s-4.23,1.51-4.23,5.74v33.7c0,4.23,2.12,5.74,4.23,5.74s4.23-1.51,4.23-5.74v-33.7Z"></path><path class="cls-1" d="M97.68,211.21l-6.65-23.8h-2.95v23.8h-7.71v-57.88h12.85c5.82,0,10.65,3.4,10.65,12.09v9.29c0,5.82-1.36,9.22-5.59,11.03l7.1,25.46h-7.71ZM96.16,166.4c0-4.23-1.36-5.74-4.23-5.74h-3.85v19.42h3.85c2.87,0,4.23-1.51,4.23-5.74v-7.93Z"></path></g></g><g><circle class="cls-2" cx="79.98" cy="50.96" r="15.45"></circle><circle class="cls-2" cx="443.2" cy="237.04" r="15.45"></circle></g></svg> 